<?xml version="1.0" standalone="no"?><!-- Generator: Gravit.io --><svg xmlns="http://www.w3.org/2000/svg" xmlns:xlink="http://www.w3.org/1999/xlink" style="isolation:isolate" viewBox="0 0 1920 1080" width="1920" height="1080"><defs><clipPath id="_clipPath_i3eFY37yV0u0tbr0MZVYSDpafjQb9uoO"><rect width="1920" height="1080"/></clipPath></defs><g clip-path="url(#_clipPath_i3eFY37yV0u0tbr0MZVYSDpafjQb9uoO)"><linearGradient id="_lgradient_0" x1="0.4999999999999999" y1="0" x2="0.49999999999999994" y2="1" gradientTransform="matrix(1920,0,0,1080,0,0)" gradientUnits="userSpaceOnUse"><stop offset="45.65217391304348%" stop-opacity="1" style="stop-color:rgb(179,229,252)"/><stop offset="90.43478260869566%" stop-opacity="1" style="stop-color:rgb(249,249,187)"/></linearGradient><rect x="0" y="0" width="1920" height="1080" transform="matrix(1,0,0,1,0,0)" fill="url(#_lgradient_0)"/><defs><filter id="5ogLxwL8hZClLXWz14AOVC6kU8gqp9BI" x="-200%" y="-200%" width="400%" height="400%" filterUnits="objectBoundingBox" color-interpolation-filters="sRGB"><feGaussianBlur xmlns="http://www.w3.org/2000/svg" in="SourceGraphic" stdDeviation="2.146804531419514"/><feOffset xmlns="http://www.w3.org/2000/svg" dx="0" dy="-3" result="pf_100_offsetBlur"/><feFlood xmlns="http://www.w3.org/2000/svg" flood-color="#000000" flood-opacity="0.3"/><feComposite xmlns="http://www.w3.org/2000/svg" in2="pf_100_offsetBlur" operator="in" result="pf_100_dropShadow"/><feBlend xmlns="http://www.w3.org/2000/svg" in="SourceGraphic" in2="pf_100_dropShadow" mode="normal"/></filter></defs><g filter="url(#5ogLxwL8hZClLXWz14AOVC6kU8gqp9BI)"><path d=" M 1357 900 L 0 900 L 0 1080 L 1376.732 1080 L 1376.732 1080 L 1697.268 1080 L 1697.268 1080 L 1920 1080 L 1920 978.714 L 1920 900 L 1920 638.286 C 1920 629.298 1912.702 622 1903.714 622 L 1696.286 622 C 1687.298 622 1680 629.298 1680 638.286 L 1680 715 L 1376.732 715 C 1365.841 715 1357 723.841 1357 734.732 L 1357 900 Z " fill-rule="evenodd" fill="rgb(139,195,74)"/></g><g filter="url(#EnhuXnEZ4h938k6sXQkdVDmQGeqLg4Zb)"><linearGradient id="_lgradient_1" x1="0" y1="0.5" x2="1" y2="0.5" gradientTransform="matrix(28.174,0,0,56.348,1760.891,565.652)" gradientUnits="userSpaceOnUse"><stop offset="1.3043478260869565%" stop-opacity="1" style="stop-color:rgb(89,62,52)"/><stop offset="52.17391304347826%" stop-opacity="1" style="stop-color:rgb(121,85,72)"/><stop offset="99.56521739130434%" stop-opacity="1" style="stop-color:rgb(89,62,52)"/></linearGradient><rect x="1760.891" y="565.652" width="28.174" height="56.348" transform="matrix(1,0,0,1,0,0)" fill="url(#_lgradient_1)"/><linearGradient id="_lgradient_2" x1="0.5" y1="0" x2="0.5000000000000001" y2="1" gradientTransform="matrix(65.152,0,0,42.261,1753.848,541)" gradientUnits="userSpaceOnUse"><stop offset="36.95652173913043%" stop-opacity="1" style="stop-color:rgb(46,125,50)"/><stop offset="100%" stop-opacity="1" style="stop-color:rgb(24,70,26)"/></linearGradient><ellipse vector-effect="non-scaling-stroke" cx="1786.423913043479" cy="562.1304347826086" rx="32.57608695652175" ry="21.13043478260863" fill="url(#_lgradient_2)"/><linearGradient id="_lgradient_3" x1="0.5" y1="0" x2="0.5000000000000001" y2="1" gradientTransform="matrix(36.978,0,0,26.413,1738,555.087)" gradientUnits="userSpaceOnUse"><stop offset="36.95652173913043%" stop-opacity="1" style="stop-color:rgb(46,125,50)"/><stop offset="100%" stop-opacity="1" style="stop-color:rgb(24,70,26)"/></linearGradient><ellipse vector-effect="non-scaling-stroke" cx="1756.489130434783" cy="568.2934782608694" rx="18.48913043478251" ry="13.20652173913038" fill="url(#_lgradient_3)"/></g><defs><filter id="EnhuXnEZ4h938k6sXQkdVDmQGeqLg4Zb" x="-200%" y="-200%" width="400%" height="400%" filterUnits="objectBoundingBox" color-interpolation-filters="sRGB"><feGaussianBlur xmlns="http://www.w3.org/2000/svg" in="SourceGraphic" stdDeviation="2.146804531419514"/><feOffset xmlns="http://www.w3.org/2000/svg" dx="-2" dy="-3" result="pf_100_offsetBlur"/><feFlood xmlns="http://www.w3.org/2000/svg" flood-color="#000000" flood-opacity="0.3"/><feComposite xmlns="http://www.w3.org/2000/svg" in2="pf_100_offsetBlur" operator="in" result="pf_100_dropShadow"/><feBlend xmlns="http://www.w3.org/2000/svg" in="SourceGraphic" in2="pf_100_dropShadow" mode="normal"/></filter></defs><g filter="url(#851WUfT7hGcXnIunoRDxC04MkE9bIbMT)"><linearGradient id="_lgradient_4" x1="0" y1="0.5" x2="1" y2="0.5" gradientTransform="matrix(28.174,0,0,56.348,1409.891,658.652)" gradientUnits="userSpaceOnUse"><stop offset="1.3043478260869565%" stop-opacity="1" style="stop-color:rgb(89,62,52)"/><stop offset="52.17391304347826%" stop-opacity="1" style="stop-color:rgb(121,85,72)"/><stop offset="99.56521739130434%" stop-opacity="1" style="stop-color:rgb(89,62,52)"/></linearGradient><rect x="1409.891" y="658.652" width="28.174" height="56.348" transform="matrix(1,0,0,1,0,0)" fill="url(#_lgradient_4)"/><linearGradient id="_lgradient_5" x1="0.5" y1="0" x2="0.5000000000000001" y2="1" gradientTransform="matrix(65.152,0,0,42.261,1402.848,634)" gradientUnits="userSpaceOnUse"><stop offset="36.95652173913043%" stop-opacity="1" style="stop-color:rgb(46,125,50)"/><stop offset="100%" stop-opacity="1" style="stop-color:rgb(24,70,26)"/></linearGradient><ellipse vector-effect="non-scaling-stroke" cx="1435.4239130434785" cy="655.130434782609" rx="32.57608695652175" ry="21.13043478260863" fill="url(#_lgradient_5)"/><linearGradient id="_lgradient_6" x1="0.5" y1="0" x2="0.5000000000000001" y2="1" gradientTransform="matrix(36.978,0,0,26.413,1387,648.087)" gradientUnits="userSpaceOnUse"><stop offset="36.95652173913043%" stop-opacity="1" style="stop-color:rgb(46,125,50)"/><stop offset="100%" stop-opacity="1" style="stop-color:rgb(24,70,26)"/></linearGradient><ellipse vector-effect="non-scaling-stroke" cx="1405.4891304347825" cy="661.2934782608696" rx="18.48913043478251" ry="13.20652173913038" fill="url(#_lgradient_6)"/></g><defs><filter id="851WUfT7hGcXnIunoRDxC04MkE9bIbMT" x="-200%" y="-200%" width="400%" height="400%" filterUnits="objectBoundingBox" color-interpolation-filters="sRGB"><feGaussianBlur xmlns="http://www.w3.org/2000/svg" in="SourceGraphic" stdDeviation="2.146804531419514"/><feOffset xmlns="http://www.w3.org/2000/svg" dx="-2" dy="-3" result="pf_100_offsetBlur"/><feFlood xmlns="http://www.w3.org/2000/svg" flood-color="#000000" flood-opacity="0.3"/><feComposite xmlns="http://www.w3.org/2000/svg" in2="pf_100_offsetBlur" operator="in" result="pf_100_dropShadow"/><feBlend xmlns="http://www.w3.org/2000/svg" in="SourceGraphic" in2="pf_100_dropShadow" mode="normal"/></filter></defs><g filter="url(#Xl2uvt5cOmKJ67R2Cl9DPWIH1AY7iiqm)"><polygon points="295.655,791,341.31,850,250,850" fill="rgb(244,67,54)"/><path d=" M 263.155 850 L 295.655 850 L 328.155 850 L 328.155 900 L 263.155 900 L 263.155 850 L 263.155 850 Z  M 295.655 808 L 311.905 829 L 328.155 850 L 295.655 850 L 263.155 850 L 263.155 850 L 279.405 829 L 295.655 808 Z " fill-rule="evenodd" fill="rgb(255,255,255)"/><rect x="282.241" y="861" width="26.827" height="39" transform="matrix(1,0,0,1,0,0)" fill="rgb(215,204,200)"/></g><defs><filter id="Xl2uvt5cOmKJ67R2Cl9DPWIH1AY7iiqm" x="-200%" y="-200%" width="400%" height="400%" filterUnits="objectBoundingBox" color-interpolation-filters="sRGB"><feGaussianBlur xmlns="http://www.w3.org/2000/svg" in="SourceGraphic" stdDeviation="2.146804531419514"/><feOffset xmlns="http://www.w3.org/2000/svg" dx="2" dy="-3" result="pf_100_offsetBlur"/><feFlood xmlns="http://www.w3.org/2000/svg" flood-color="#000000" flood-opacity="0.3"/><feComposite xmlns="http://www.w3.org/2000/svg" in2="pf_100_offsetBlur" operator="in" result="pf_100_dropShadow"/><feBlend xmlns="http://www.w3.org/2000/svg" in="SourceGraphic" in2="pf_100_dropShadow" mode="normal"/></filter></defs><g filter="url(#CFG4hl5P0g7yqeOoWbgWpRTvJRcqaGGK)"><rect x="1493" y="502" width="153" height="213" transform="matrix(1,0,0,1,0,0)" fill="rgb(188,170,164)"/><g><rect x="1541.75" y="530" width="46" height="46" transform="matrix(1,0,0,1,0,0)" fill="rgb(63,81,181)"/><rect x="1564.75" y="553" width="32.5" height="32.5" transform="matrix(1,0,0,1,0,0)" fill="rgb(79,195,247)"/></g><rect x="1486" y="494" width="167" height="16" transform="matrix(1,0,0,1,0,0)" fill="rgb(93,64,55)"/></g><defs><filter id="CFG4hl5P0g7yqeOoWbgWpRTvJRcqaGGK" x="-200%" y="-200%" width="400%" height="400%" filterUnits="objectBoundingBox" color-interpolation-filters="sRGB"><feGaussianBlur xmlns="http://www.w3.org/2000/svg" in="SourceGraphic" stdDeviation="2.146804531419514"/><feOffset xmlns="http://www.w3.org/2000/svg" dx="-2" dy="-2" result="pf_100_offsetBlur"/><feFlood xmlns="http://www.w3.org/2000/svg" flood-color="#000000" flood-opacity="0.3"/><feComposite xmlns="http://www.w3.org/2000/svg" in2="pf_100_offsetBlur" operator="in" result="pf_100_dropShadow"/><feBlend xmlns="http://www.w3.org/2000/svg" in="SourceGraphic" in2="pf_100_dropShadow" mode="normal"/></filter></defs><g><path d=" M 230.802 627.002 C 226.809 626.786 222.716 627.189 218.647 628.28 C 197.856 633.851 185.499 655.254 191.07 676.045 C 196.641 696.836 218.044 709.193 238.835 703.622 C 242.904 702.532 246.651 700.835 250 698.651 C 233.592 697.784 218.871 686.518 214.39 669.796 C 209.909 653.075 217.025 635.957 230.802 627.002 Z " fill-rule="evenodd" fill="rgb(255,255,255)"/><path d=" M 308.939 689.578 L 296.805 678.368 L 280.692 682.009 L 287.603 667.005 L 279.162 652.806 L 295.567 654.743 L 306.462 642.327 L 309.69 658.527 L 324.865 665.053 L 310.455 673.129 L 308.939 689.578 Z " fill="rgb(255,255,255)"/><path d=" M 376.687 721.359 L 363.783 718.443 L 354.065 727.42 L 352.85 714.246 L 341.31 707.778 L 353.463 702.552 L 356.048 689.578 L 364.774 699.522 L 377.913 697.971 L 371.152 709.342 L 376.687 721.359 Z " fill="rgb(255,255,255)"/><path d=" M 365.281 807.762 L 356.462 793.794 L 339.956 793.14 L 350.515 780.437 L 346.036 764.537 L 361.381 770.653 L 375.119 761.48 L 374.044 777.964 L 387.013 788.195 L 371.004 792.266 L 365.281 807.762 Z " fill="rgb(255,255,255)"/><path d=" M 250 792.35 L 238.777 799.436 L 238.252 812.699 L 228.045 804.215 L 215.269 807.814 L 220.183 795.484 L 212.813 784.446 L 226.058 785.31 L 234.278 774.889 L 237.549 787.753 L 250 792.35 Z " fill="rgb(255,255,255)"/><path d=" M 276.142 760.157 L 279.29 746.224 L 269.598 735.732 L 283.821 734.421 L 290.804 721.961 L 296.447 735.083 L 310.455 737.874 L 299.719 747.295 L 301.394 761.48 L 289.116 754.181 L 276.142 760.157 Z " fill="rgb(255,255,255)"/></g><path d=" M 852.18 161.506 C 882.348 128.357 849.131 86.929 815.604 86.929 C 803.494 86.929 791.338 92.334 782.118 105.489 L 696.208 233.966 C 672.843 235.467 651.633 244.367 639.601 276.077 C 638.229 279.696 634.941 281.886 631.105 281.886 C 624.639 281.886 604.629 265.769 598.929 261.876 C 598.929 309.848 621.02 352 673.48 352 C 746.587 352 749.01 291.406 747.467 276.677 L 747.477 276.667 L 852.18 161.506 L 852.18 161.506 Z  M 718.501 319.477 C 708.965 330.064 693.816 335.433 673.48 335.433 C 641.34 335.433 626.808 316.034 620.378 295.936 C 624.287 297.655 627.704 298.453 631.105 298.453 C 641.879 298.453 651.296 291.971 655.091 281.953 C 658.642 272.587 664.218 252.619 701.328 250.238 L 730.781 276.413 C 732.314 291.018 728.669 308.186 718.501 319.477 Z  M 738.899 261.477 L 713.086 238.532 L 795.687 115 C 801.035 107.364 807.74 103.496 815.604 103.496 C 827.459 103.496 840.226 112.147 845.3 123.625 C 849.411 132.923 847.604 141.921 839.921 150.36 L 738.899 261.477 Z " fill="rgb(255,255,255)" fill-opacity="0.5"/><path d=" M 1507.598 351.574 L 1496.047 344.674 C 1494.567 343.795 1494.109 341.903 1494.988 340.424 L 1631.395 112.789 C 1632.274 111.31 1634.165 110.852 1635.645 111.731 L 1647.195 118.631 C 1648.675 119.51 1649.133 121.401 1648.254 122.881 L 1511.861 350.465 C 1510.982 351.945 1509.027 352.439 1507.598 351.574 Z  M 1486.581 278.785 L 1498.633 270.812 C 1499.865 270.016 1500.144 268.376 1499.335 267.194 L 1452.56 199.723 L 1526.804 164.679 C 1528.095 164.06 1528.674 162.5 1528.005 161.195 L 1521.554 148.265 C 1520.935 146.973 1519.362 146.445 1518.057 147.113 L 1428.952 191.414 C 1427.534 192.106 1427.065 193.857 1427.947 195.165 L 1482.964 278.083 C 1483.773 279.265 1485.4 279.593 1486.581 278.785 Z  M 1625.199 316.141 L 1714.304 271.84 C 1715.722 271.148 1716.191 269.398 1715.309 268.09 L 1660.279 185.222 C 1659.47 184.04 1657.893 183.725 1656.674 184.47 L 1644.623 192.443 C 1643.391 193.238 1643.112 194.879 1643.921 196.06 L 1690.696 263.532 L 1616.452 298.576 C 1615.161 299.195 1614.582 300.755 1615.251 302.059 L 1621.702 314.99 C 1622.321 316.281 1623.894 316.81 1625.199 316.141 L 1625.199 316.141 Z " fill="rgb(255,255,255)" fill-opacity="0.5"/><path d=" M 1196.791 210.514 C 1244.317 237.953 1275.434 273.105 1266.309 288.91 L 1258.025 303.257 C 1248.901 319.062 1202.9 309.69 1155.374 282.251 C 1107.848 254.812 1076.732 219.66 1085.857 203.856 L 1094.14 189.508 C 1103.265 173.704 1149.266 183.076 1196.791 210.514 Z  M 1244.176 327.244 L 1233.175 346.3 C 1224.05 362.104 1178.049 352.732 1130.524 325.294 C 1082.998 297.855 1051.882 262.703 1061.006 246.898 L 1072.008 227.843 C 1082.996 251.523 1113.352 277.12 1147.091 296.599 C 1180.829 316.078 1218.174 329.569 1244.176 327.244 Z  M 1219.326 370.287 L 1208.325 389.342 C 1199.2 405.146 1153.199 395.775 1105.673 368.336 C 1058.148 340.897 1027.031 305.745 1036.156 289.94 L 1047.158 270.885 C 1058.145 294.565 1088.502 320.162 1122.24 339.641 C 1155.979 359.12 1193.324 372.611 1219.326 370.287 Z  M 1194.476 413.329 L 1183.474 432.384 C 1174.349 448.188 1128.349 438.817 1080.823 411.378 C 1033.297 383.939 1002.181 348.787 1011.306 332.982 L 1022.307 313.927 C 1033.295 337.607 1063.651 363.204 1097.39 382.683 C 1131.129 402.162 1168.474 415.653 1194.476 413.329 Z  M 1205.075 196.167 C 1170.04 175.939 1099.777 146.612 1079.793 181.225 L 996.958 324.699 C 976.939 359.374 1037.611 405.559 1072.54 425.725 C 1107.575 445.953 1177.838 475.28 1197.822 440.667 L 1280.656 297.193 C 1300.676 262.519 1240.004 216.333 1205.075 196.167 Z " fill="rgb(255,255,255)" fill-opacity="0.5"/><path d=" M 404.548 324.843 L 402.776 323.228 C 400.765 323.927 398.765 324.463 396.675 324.863 L 395.96 327.198 C 394.293 332.576 389.205 336.19 383.562 335.934 C 376.085 335.632 370.881 334.615 363.984 331.478 C 358.492 328.984 355.663 322.827 357.21 316.999 L 357.884 314.514 C 356.278 313.122 354.809 311.64 353.413 310.031 L 348.862 311.25 C 343.062 312.804 337.062 310.017 334.434 304.611 C 331.298 298.108 329.842 292.871 329.326 285.345 C 328.862 279.412 332.764 273.972 338.515 272.431 L 343.015 271.225 C 343.42 269.133 343.951 267.115 344.645 265.107 L 342.742 263.205 C 338.502 258.981 337.9 252.335 341.282 247.356 C 345.364 241.385 349.218 237.565 355.489 233.365 C 360.394 230.068 366.935 230.674 371.162 234.847 L 373.051 236.699 C 375.061 236 377.062 235.464 379.152 235.065 L 379.863 232.516 C 381.437 226.788 386.798 222.993 392.758 223.433 C 400.012 223.901 405.196 225.245 412.07 228.495 C 417.476 231.067 420.227 237.136 418.667 242.914 L 417.956 245.463 C 419.562 246.855 421.031 248.337 422.427 249.946 L 424.978 249.263 C 430.778 247.709 436.778 250.496 439.406 255.902 C 442.542 262.405 443.999 267.642 444.514 275.169 C 444.978 281.101 441.076 286.541 435.326 288.082 L 432.825 288.752 C 432.421 290.844 431.89 292.862 431.195 294.871 L 433.021 296.686 C 437.339 300.996 437.867 307.769 434.358 312.675 C 430.186 318.51 426.202 322.043 419.754 326.182 C 414.945 329.24 408.695 328.717 404.548 324.843 Z  M 406.026 305.956 L 413.779 313.687 C 416.755 311.389 419.373 308.758 421.684 305.78 L 413.931 298.049 L 416.126 293.441 C 417.763 289.948 418.806 286.238 419.068 282.416 L 419.472 277.323 L 430.023 274.496 C 429.522 270.825 428.544 267.174 427.143 263.744 L 416.591 266.571 L 413.695 262.363 C 411.506 259.197 408.799 256.493 405.634 254.285 L 401.429 251.392 L 404.214 240.784 C 400.774 239.347 397.141 238.391 393.416 237.889 L 390.567 248.461 L 385.475 248.86 C 381.637 249.138 377.886 250.143 374.423 251.821 L 369.814 254.021 L 362.061 246.29 C 359.122 248.525 356.468 251.219 354.207 254.183 L 361.96 261.914 L 359.764 266.523 C 358.128 270.016 357.085 273.726 356.823 277.548 L 356.418 282.641 L 345.867 285.468 C 346.368 289.139 347.346 292.79 348.748 296.22 L 359.299 293.393 L 362.196 297.601 C 364.384 300.767 367.092 303.471 370.256 305.679 L 374.461 308.572 L 371.626 319.193 C 375.066 320.63 378.699 321.586 382.425 322.088 L 385.273 311.517 L 390.365 311.117 C 394.203 310.839 397.954 309.834 401.417 308.156 L 406.026 305.956 Z  M 242.439 506.563 L 238.205 490.76 C 231.017 489.739 223.965 487.823 217.175 485.086 L 205.553 496.722 C 201.403 500.836 194.998 501.534 190.085 498.402 C 174.459 488.492 164.199 478.807 152.976 461.125 C 149.842 456.23 150.538 449.826 154.625 445.676 L 166.147 434.067 C 163.421 427.293 161.531 420.242 160.505 413.013 L 144.736 408.77 C 139.135 407.27 135.317 402.022 135.584 396.215 C 136.489 375.391 140.431 361.9 149.082 345.379 C 151.771 340.21 157.717 337.598 163.318 339.099 L 179.151 343.378 C 183.663 337.614 188.826 332.478 194.526 327.949 L 190.292 312.147 C 188.778 306.496 191.379 300.6 196.558 297.926 C 212.866 289.376 226.397 285.268 247.416 284.299 C 253.238 284.025 258.502 287.867 260.003 293.468 L 264.237 309.27 C 271.425 310.292 278.477 312.208 285.254 314.895 L 296.838 303.322 C 300.989 299.208 307.444 298.497 312.357 301.629 C 329.775 312.827 340.601 324.023 350.27 338.905 C 353.377 343.7 352.804 349.964 348.88 354.124 L 338.496 365.375 C 341.222 372.148 343.111 379.199 344.137 386.428 L 360.534 391.414 C 365.558 392.962 369.125 397.473 369.352 402.719 C 370.095 419.296 361.505 439.445 353.35 454.816 C 350.648 459.935 344.738 462.483 339.137 460.982 L 323.254 456.716 C 318.743 462.481 313.58 467.616 307.879 472.145 L 312.113 487.947 C 313.614 493.548 311.027 499.494 305.847 502.168 C 288.207 511.344 274.491 514.965 254.89 515.822 C 249.154 516.019 243.94 512.164 242.439 506.563 L 242.439 506.563 Z  M 257.611 499.175 C 270.683 498.352 283.535 494.908 295.267 489.085 L 288.875 465.231 L 293.717 461.897 C 301.327 456.696 307.873 450.118 313.119 442.495 L 316.428 437.642 L 340.334 444.046 C 346.176 432.244 351.803 418.837 352.651 405.8 L 328.745 399.396 L 328.308 393.564 C 327.55 384.333 325.151 375.382 321.193 367.009 L 318.655 361.74 L 336.156 344.241 C 328.903 333.374 317.314 324.527 306.366 317.277 L 288.866 334.776 L 283.573 332.228 C 275.205 328.2 266.311 325.812 257.069 325.126 L 251.209 324.66 L 244.831 300.856 C 231.759 301.679 218.907 305.123 207.175 310.946 L 213.567 334.8 L 208.725 338.134 C 201.115 343.335 194.569 349.913 189.323 357.536 L 186.014 362.389 L 162.108 355.985 C 156.285 367.747 152.847 380.545 151.992 393.641 L 175.897 400.046 L 176.334 405.878 C 177.092 415.108 179.491 424.059 183.449 432.432 L 185.987 437.701 L 168.486 455.2 C 175.739 466.067 185.128 475.503 196.076 482.754 L 213.576 465.255 L 218.868 467.803 C 227.237 471.831 236.131 474.218 245.373 474.904 L 251.233 475.371 L 257.611 499.175 L 257.611 499.175 Z  M 262.704 441.371 C 239.851 447.495 216.263 433.877 210.14 411.023 C 204.016 388.17 217.634 364.582 240.488 358.459 C 263.341 352.335 286.929 365.953 293.052 388.807 C 299.176 411.66 285.558 435.248 262.704 441.371 Z  M 244.776 374.461 C 230.774 378.213 222.377 392.683 226.142 406.735 C 229.907 420.787 244.364 429.134 258.416 425.369 C 272.418 421.617 280.815 407.147 277.05 393.095 C 273.285 379.042 258.828 370.696 244.776 374.461 L 244.776 374.461 Z  M 445.336 477.066 L 443.564 475.451 C 441.554 476.15 439.553 476.686 437.463 477.086 L 436.748 479.421 C 435.081 484.799 429.993 488.413 424.35 488.157 C 416.873 487.855 411.669 486.838 404.772 483.701 C 399.28 481.207 396.451 475.05 397.998 469.222 L 398.672 466.737 C 397.066 465.345 395.597 463.863 394.201 462.254 L 389.651 463.473 C 383.85 465.027 377.85 462.24 375.222 456.834 C 372.087 450.331 370.63 445.094 370.114 437.568 C 369.65 431.635 373.552 426.195 379.303 424.654 L 383.803 423.448 C 384.208 421.356 384.739 419.338 385.433 417.33 L 383.53 415.428 C 379.29 411.204 378.688 404.558 382.071 399.579 C 386.152 393.608 390.006 389.788 396.277 385.588 C 401.182 382.291 407.723 382.897 411.95 387.07 L 413.839 388.922 C 415.85 388.223 417.85 387.687 419.94 387.288 L 420.651 384.739 C 422.225 379.011 427.586 375.216 433.546 375.656 C 440.8 376.124 445.984 377.468 452.858 380.718 C 458.264 383.29 461.016 389.359 459.455 395.137 L 458.744 397.686 C 460.35 399.078 461.819 400.56 463.215 402.169 L 465.766 401.486 C 471.566 399.932 477.566 402.719 480.194 408.125 C 483.33 414.628 484.787 419.865 485.302 427.392 C 485.766 433.324 481.864 438.764 476.114 440.305 L 473.613 440.975 C 473.209 443.067 472.678 445.085 471.983 447.094 L 473.809 448.909 C 478.127 453.219 478.655 459.992 475.146 464.898 C 470.974 470.733 466.99 474.266 460.542 478.405 C 455.72 481.413 449.47 480.89 445.336 477.066 Z  M 446.801 458.129 L 454.554 465.86 C 457.529 463.562 460.147 460.931 462.458 457.953 L 454.705 450.222 L 456.901 445.614 C 458.537 442.121 459.58 438.411 459.842 434.589 L 460.247 429.496 L 470.798 426.669 C 470.297 422.998 469.319 419.347 467.917 415.917 L 457.366 418.744 L 454.469 414.536 C 452.281 411.37 449.573 408.666 446.409 406.458 L 442.204 403.565 L 445.052 392.994 C 441.612 391.557 437.979 390.601 434.254 390.098 L 431.405 400.67 L 426.313 401.07 C 422.475 401.348 418.724 402.353 415.261 404.031 L 410.652 406.231 L 402.899 398.5 C 399.924 400.798 397.306 403.429 394.995 406.406 L 402.748 414.137 L 400.552 418.746 C 398.916 422.239 397.873 425.949 397.611 429.771 L 397.207 434.864 L 386.655 437.691 C 387.156 441.362 388.134 445.013 389.536 448.443 L 400.087 445.616 L 402.984 449.824 C 405.172 452.99 407.88 455.694 411.044 457.902 L 415.249 460.795 L 412.401 471.366 C 415.841 472.803 419.474 473.759 423.199 474.261 L 426.048 463.69 L 431.14 463.29 C 434.978 463.012 438.729 462.007 442.192 460.329 L 446.801 458.129 Z  M 443.603 427.792 C 441.232 418.94 432.164 413.705 423.313 416.077 C 414.462 418.449 409.227 427.516 411.598 436.367 C 413.97 445.219 423.037 450.454 431.889 448.082 C 440.74 445.71 445.975 436.643 443.603 427.792 Z  M 402.829 275.619 C 400.457 266.767 391.39 261.532 382.538 263.904 C 373.687 266.276 368.452 275.343 370.824 284.194 C 373.196 293.046 382.263 298.281 391.114 295.909 C 399.965 293.537 405.187 284.42 402.829 275.619 Z " fill="rgb(255,255,255)" fill-opacity="0.5"/></g></svg>