<?xml version="1.0" encoding="UTF-8" standalone="no"?>
<!DOCTYPE svg PUBLIC "-//W3C//DTD SVG 1.1//EN" "http://www.w3.org/Graphics/SVG/1.1/DTD/svg11.dtd">
<svg width="100%" height="100%" viewBox="0 0 512 512" version="1.1" xmlns="http://www.w3.org/2000/svg" xmlns:xlink="http://www.w3.org/1999/xlink" xml:space="preserve" xmlns:serif="http://www.serif.com/" style="fill-rule:evenodd;clip-rule:evenodd;stroke-linejoin:round;stroke-miterlimit:1.41421;">
    <path d="M448,0C483.323,0 512,28.678 512,64L512,448C512,483.323 483.323,512 448,512L64,512C28.677,512 0,483.323 0,448L0,64C0,28.678 28.677,0 64,0L448,0ZM265.948,481C302.269,481 328.288,469.824 344.004,447.473C359.72,425.121 367.403,391.768 367.054,347.414L366.006,136.821C365.657,101.896 357.449,75.529 341.384,57.717C325.319,39.906 301.221,31 269.091,31L144.935,31L144.935,481L265.948,481ZM245.517,109.58C254.249,109.58 260.709,110.453 264.9,112.199C269.091,113.945 271.972,117.35 273.544,122.414C275.115,127.478 275.901,135.074 275.901,145.203L275.901,377.275C275.901,393.34 267.694,401.373 251.28,401.373L235.564,401.373L235.564,109.58L245.517,109.58Z" style="fill:white;"/>
</svg>
